<?xml version="1.0" encoding="UTF-8"?>
<svg width="17px" height="18px" viewBox="0 0 17 18" version="1.1" xmlns="http://www.w3.org/2000/svg" xmlns:xlink="http://www.w3.org/1999/xlink">
    <!-- Generator: sketchtool 53.2 (72643) - https://sketchapp.com -->
    <title>E9676894-7378-4853-92E2-C92DADF4ADEA</title>
    <desc>Created with sketchtool.</desc>
    <g id="Page-1" stroke="none" stroke-width="1" fill="none" fill-rule="evenodd">
        <g id="6.-Plant-profiles-Copy-3" transform="translate(-292.000000, -608.000000)" fill="#3B4ED6" fill-rule="nonzero">
            <g id="drop" transform="translate(292.000000, 608.000000)">
                <g id="Group-2">
                    <path d="M6.42532116,4.67351669 C6.09730176,4.17966714 5.80787288,3.72532555 5.53773926,3.31049192 C5.49914874,3.25122998 5.44126296,3.19196803 5.38337719,3.15246006 C5.15183408,2.99442821 4.84310994,3.07344414 4.68874787,3.31049192 C4.43790951,3.72532555 4.14848063,4.15991316 3.80116597,4.67351669 C2.27684053,6.96497863 0,10.4219255 0,12.3973237 C0,13.8393644 0.578857762,15.1431273 1.50503018,16.0913184 C2.4312026,17.0197556 3.70468968,17.612375 5.11324356,17.612375 C6.52179745,17.612375 7.79528453,17.0197556 8.72145695,16.0715644 C9.64762937,15.1233733 10.2264871,13.8196105 10.2264871,12.3775698 C10.2264871,10.4021715 7.9496466,6.96497863 6.42532116,4.67351669 Z" id="Path"></path>
                    <path d="M14.4427448,1.09512818 C14.2230336,0.757800617 14.0291709,0.447459258 13.8482323,0.164104104 C13.822384,0.123624796 13.7836114,0.0831454887 13.7448389,0.0561592836 C13.5897487,-0.051785537 13.3829618,0.00218687328 13.2795683,0.164104104 C13.1115539,0.447459258 12.9176912,0.744307515 12.6850559,1.09512818 C11.6640455,2.66032808 10.1389919,5.02162103 10.1389919,6.37093129 C10.1389919,7.35592778 10.5267174,8.24647255 11.1470782,8.89414147 C11.7674389,9.52831729 12.620435,9.93311037 13.5639003,9.93311037 C14.5073657,9.93311037 15.3603617,9.52831729 15.9807225,8.88064837 C16.6010833,8.23297944 16.9888087,7.34243467 16.9888087,6.35743819 C16.9888087,5.00812793 15.4637552,2.66032808 14.4427448,1.09512818 Z" id="Path-Copy-2"></path>
                </g>
            </g>
        </g>
    </g>
</svg>