<?xml version="1.0" encoding="UTF-8"?>
<svg width="74px" height="59px" viewBox="0 0 74 59" version="1.1" xmlns="http://www.w3.org/2000/svg" xmlns:xlink="http://www.w3.org/1999/xlink">
    <!-- Generator: Sketch 53.2 (72643) - https://sketchapp.com -->
    <title>Group 41</title>
    <desc>Created with Sketch.</desc>
    <defs>
        <polygon id="path-1" points="0.499771973 0.140434796 15.8022363 0.140434796 15.8022363 14.5085336 0.499771973 14.5085336"></polygon>
    </defs>
    <g id="Page-1" stroke="none" stroke-width="1" fill="none" fill-rule="evenodd">
        <g id="1.-Sign-up-Copy" transform="translate(-150.000000, -66.000000)">
            <g id="Group-41" transform="translate(150.000000, 66.000000)">
                <polygon id="Fill-1" fill="#004E17" points="1.58967785 17.6764209 3.02852484 18.6619217 2.08880891 20.0890242 0.649961917 19.1035233 0 20.0930756 3.72810217 22.6464646 4.37806409 21.6569124 2.83998627 20.6045637 3.7797022 19.1764484 5.31778002 20.2287971 5.96774194 19.2402578 2.23963977 16.6868687"></polygon>
                <path d="M9.41274124,13.4670825 L7.97189827,12.739096 L8.63807268,14.1980772 L9.41274124,13.4670825 Z M10.267513,13.9002646 L9.03453263,15.0624359 L9.38739213,15.8195018 L8.46569878,16.6868687 L6.56451613,12.2126594 L7.50648876,11.3232323 L11.9354839,13.4159429 L11.0158184,14.2833098 L10.267513,13.9002646 Z" id="Fill-2" fill="#004E17"></path>
                <g id="Group-40" transform="translate(12.532258, 0.000000)">
                    <path d="M2.23001015,8.25027558 L2.56678646,8.04384751 C2.94019101,7.81425921 3.02667435,7.53835047 2.82521904,7.21712825 C2.62376372,6.89489906 2.33582507,6.84857861 1.96242052,7.07816691 L1.62462676,7.28560195 L2.23001015,8.25027558 Z M3.54252205,10.3457723 L2.52608842,10.9690844 L0.0994675833,7.09729927 L1.71823226,6.10443058 C2.15777113,5.8355706 2.56475156,5.74192274 2.94019101,5.82449397 C3.31461301,5.9070652 3.6310403,6.15377193 3.88845542,6.56360718 C4.14587054,6.97444939 4.22930153,7.36515228 4.13671348,7.73370192 C4.04514289,8.10325852 3.7785707,8.42246681 3.34004929,8.69233375 L2.73771824,9.06189035 L3.54252205,10.3457723 Z" id="Fill-3" fill="#004E17"></path>
                    <path d="M9.45950883,4.65802431 L9.83087848,4.52107691 C10.2439636,4.37003197 10.382337,4.11627649 10.2480334,3.76081742 C10.1157648,3.40636531 9.84308789,3.30466172 9.4310202,3.45671362 L9.0586331,3.59366102 L9.45950883,4.65802431 Z M10.3284121,6.96901177 L9.20718096,7.38186792 L7.60164315,3.11233117 L9.38625235,2.45478224 C9.87055907,2.27654922 10.287714,2.26446562 10.6387346,2.41752449 C10.9907727,2.57259728 11.2512402,2.87569411 11.422172,3.32983588 C11.5920863,3.78196371 11.5961561,4.18072233 11.431329,4.52409781 C11.2675194,4.86848025 10.94397,5.13029147 10.4586458,5.30852449 L9.79628514,5.55321728 L10.3284121,6.96901177 Z" id="Fill-5" fill="#004E17"></path>
                    <polygon id="Fill-7" fill="#004E17" points="17.2136053 2.83883915 15.1878602 0.753412121 16.5990648 0.536914385 17.6368649 1.63752846 18.2829464 0.278124068 19.694151 0.0606193661 18.3958834 2.65758523 18.7357121 4.81853473 17.553434 4.99978865"></polygon>
                    <path d="M31.4887492,2.64509885 L31.878433,2.71961435 C32.3098323,2.80117861 32.5621601,2.65718245 32.6333817,2.28561191 C32.7056207,1.91303441 32.5265493,1.68646701 32.0951501,1.60389579 L31.7054663,1.53038725 L31.4887492,2.64509885 Z M31.0176694,5.06584563 L29.8435308,4.8433061 L30.7114166,0.368348241 L32.5825091,0.724814281 C33.0902172,0.821483037 33.4534473,1.02589718 33.6721993,1.3380567 C33.8909512,1.6512232 33.9550507,2.04394002 33.8624626,2.51922807 C33.7698746,2.99350916 33.5643494,3.33587767 33.2438524,3.54633361 C32.9233553,3.75578258 32.5092527,3.81116573 32.0015446,3.71449697 L31.305608,3.58359136 L31.0176694,5.06584563 Z" id="Fill-9" fill="#004E17"></path>
                    <polygon id="Fill-11" fill="#004E17" points="40.0356436 2.91254908 38.7109223 6.21439129 40.0448006 6.73902069 39.6703786 7.6714714 37.2244262 6.70981867 38.9235695 2.47552574"></polygon>
                    <path d="M46.3381426,9.40274842 L46.7196867,7.83993685 L45.4356635,8.82474981 L46.3381426,9.40274842 Z M46.1102335,10.3291573 L44.6756275,9.40979718 L44.0102145,9.92737781 L42.9388385,9.24062685 L46.9099501,6.35868955 L48.0077798,7.060545 L46.9781193,11.8265161 L45.9067433,11.1417791 L46.1102335,10.3291573 Z" id="Fill-13" fill="#004E17"></path>
                    <polygon id="Fill-15" fill="#004E17" points="50.036272 14.3244972 53.3328135 11.1455048 54.1681409 11.9943774 53.6940087 15.5046616 55.7095793 13.5602098 56.5408368 14.4040475 53.2432778 17.5830398 52.4130378 16.7392022 52.88717 13.2289179 50.8705819 15.1723627"></polygon>
                    <polygon id="Fill-17" fill="#004E17" points="59.8719717 20.6396858 56.8460721 22.5509077 56.203043 21.5530041 59.2279251 19.6417823 58.699868 18.8221118 59.5535095 18.2823779 61.2546877 20.9196224 60.4010462 21.4593563"></polygon>
                    <path d="M38.8801244,43.2590672 C38.8801244,43.2590672 38.6227093,49.4468745 34.613952,53.6288052 C30.6041773,57.8107359 24.3621149,58.403839 24.3621149,58.403839 C24.3621149,58.403839 24.6205474,52.2170386 28.6303222,48.033094 C32.638062,43.8511633 38.8801244,43.2590672 38.8801244,43.2590672" id="Fill-19" fill="#004E17"></path>
                    <g id="Group-23" transform="translate(8.560286, 43.895507)">
                        <mask id="mask-2" fill="white">
                            <use xlink:href="#path-1"></use>
                        </mask>
                        <g id="Clip-22"></g>
                        <path d="M0.499771973,0.140434796 C0.499771973,0.140434796 6.75200888,0.396204215 10.9774832,4.3636511 C15.2029576,8.33109798 15.8022363,14.5088357 15.8022363,14.5088357 C15.8022363,14.5088357 9.55101682,14.2540732 5.32452501,10.2856194 C1.09905066,6.31817252 0.499771973,0.140434796 0.499771973,0.140434796" id="Fill-21" fill="#004E17" mask="url(#mask-2)"></path>
                    </g>
                    <path d="M41.5549015,28.7259266 C41.5549015,31.4346657 39.372469,33.631866 36.6813108,33.631866 C33.9891353,33.631866 31.8067027,31.4346657 31.8067027,28.7259266 C31.8067027,26.0161805 33.9891353,23.8199872 36.6813108,23.8199872 C39.372469,23.8199872 41.5549015,26.0161805 41.5549015,28.7259266" id="Fill-24" fill="#00FF00"></path>
                    <polyline id="Stroke-26" stroke="#004E17" stroke-width="0.5" stroke-linecap="round" stroke-linejoin="round" points="36.729945 23.4727852 36.729945 28.1390667 36.729945 31.9494268 36.729945 34.2473237"></polyline>
                    <path d="M40.4857639,24.8917013 C38.6553694,25.5593199 37.7376286,26.4273248 36.730352,28.1391674 C36.7130553,28.1623276 36.7008459,28.1915296 36.6835492,28.2217386 C35.670168,26.7032335 34.8175439,25.7707828 33.0288649,24.7748932" id="Stroke-28" stroke="#004E17" stroke-width="0.5" stroke-linecap="round" stroke-linejoin="round"></path>
                    <path d="M41.8242208,28.1859913 C39.147307,28.9482647 38.003692,29.8565482 36.7298433,31.949024 C36.7176338,31.9671494 36.7074593,31.9903096 36.6952499,32.008435 C35.3918951,30.1264152 34.3317111,29.0942748 31.5652616,27.8113999" id="Stroke-30" stroke="#004E17" stroke-width="0.5" stroke-linecap="round" stroke-linejoin="round"></path>
                    <path d="M16.3322892,28.7259266 C16.3322892,31.4346657 14.1498566,33.631866 11.4586985,33.631866 C8.7665229,33.631866 6.58510777,31.4346657 6.58510777,28.7259266 C6.58510777,26.0161805 8.7665229,23.8199872 11.4586985,23.8199872 C14.1498566,23.8199872 16.3322892,26.0161805 16.3322892,28.7259266" id="Fill-32" fill="#00FF00"></path>
                    <polyline id="Stroke-34" stroke="#004E17" stroke-width="0.5" stroke-linecap="round" stroke-linejoin="round" points="11.5083501 23.4727852 11.5083501 31.9494268 11.5083501 34.2473237"></polyline>
                    <path d="M16.6025242,28.1859913 C13.9245929,28.9482647 12.7819953,29.8565482 11.5081466,31.949024 C11.4959372,31.9671494 11.4847452,31.9903096 11.4725358,32.008435 C10.1701984,30.1264152 9.10899693,29.0942748 6.34356489,27.8113999" id="Stroke-36" stroke="#004E17" stroke-width="0.5" stroke-linecap="round" stroke-linejoin="round"></path>
                    <path d="M15.2650847,24.8887811 C13.4062016,25.5694903 12.4843909,26.4546136 11.4598177,28.2238532 C10.4474538,26.7033342 9.59482983,25.7698766 7.80411592,24.7749939" id="Stroke-38" stroke="#004E17" stroke-width="0.5" stroke-linecap="round" stroke-linejoin="round"></path>
                </g>
            </g>
        </g>
    </g>
</svg>