<?xml version="1.0" encoding="UTF-8"?>
<svg width="26px" height="17px" viewBox="0 0 26 17" version="1.1" xmlns="http://www.w3.org/2000/svg" xmlns:xlink="http://www.w3.org/1999/xlink">
    <!-- Generator: sketchtool 53.2 (72643) - https://sketchapp.com -->
    <title>16450C84-4A53-49FE-97C0-9C62A7991031</title>
    <desc>Created with sketchtool.</desc>
    <g id="Page-1" stroke="none" stroke-width="1" fill="none" fill-rule="evenodd">
        <g id="6.-Plant-profiles-Copy-3" transform="translate(-59.000000, -609.000000)" fill="#0DCBCB" fill-rule="nonzero" stroke="#00CFCD" stroke-width="0.5">
            <g id="humidity" transform="translate(60.000000, 610.000000)">
                <path d="M21.1602242,14.585848 C20.7679435,14.8585819 19.4997466,16.25 17.5123684,15.1474708 C17.2218121,14.9862801 16.776462,14.7773635 16.501194,14.585848 C16.0551267,14.2757359 15.7026949,14.0308772 14.942461,14.0308772 C14.1834942,14.0308772 13.8317593,14.2757359 13.3863255,14.5852144 C12.8762086,14.9402437 12.2407164,15.382383 11.0574756,15.382383 C9.87493177,15.382383 9.2400731,14.9402437 8.73058967,14.5852144 C8.28578947,14.2757359 7.93405458,14.0308772 7.1757846,14.0308772 C6.80225634,14.0308772 6.5,13.7286209 6.5,13.3550926 C6.5,12.9815643 6.80225634,12.679308 7.1757846,12.679308 C8.35832846,12.679308 8.99318713,13.1214474 9.50267057,13.4764766 C9.94747076,13.7859552 10.2992057,14.0308138 11.0574756,14.0308138 C11.817076,14.0308138 12.1688109,13.7860185 12.6142446,13.4758431 C13.1243616,13.1208138 13.7592203,12.679308 14.942461,12.679308 C16.1263353,12.679308 16.7618275,13.1208138 17.2726413,13.4758431 C17.718075,13.7859552 18.0705068,14.0308138 18.8307407,14.0308138 C19.5902778,14.0308138 19.9427096,13.7860185 20.3881433,13.4758431 C20.8988938,13.1208138 21.5344493,12.679308 22.7183236,12.679308 C23.0918519,12.679308 23.3941082,12.9815643 23.3941082,13.3550926 C23.3941082,13.7286209 23.0918519,14.0308772 22.7183236,14.0308772 C21.9580897,14.0308772 21.6056579,14.2756725 21.1602242,14.585848 Z M2.23388402,1.10935491 C2.62616472,0.836620995 3.8943616,-0.554797134 5.88173977,0.547732106 C6.17229612,0.708922803 6.6176462,0.917839318 6.89291423,1.10935491 C7.33898148,1.419467 7.69141326,1.66432567 8.45164717,1.66432567 C9.21061404,1.66432567 9.56234893,1.419467 10.0077827,1.10998844 C10.5178996,0.754959201 11.1533918,0.312819825 12.3366326,0.312819825 C13.5191764,0.312819825 14.1540351,0.754959201 14.6635185,1.10998844 C15.1083187,1.419467 15.4600536,1.66432567 16.2183236,1.66432567 C16.5918519,1.66432567 16.8941082,1.96658201 16.8941082,2.34011027 C16.8941082,2.71363854 16.5918519,3.01589487 16.2183236,3.01589487 C15.0357797,3.01589487 14.4009211,2.5737555 13.8914376,2.21872626 C13.4466374,1.9092477 13.0949025,1.66438903 12.3366326,1.66438903 C11.5770322,1.66438903 11.2252973,1.90918435 10.7798635,2.21935979 C10.2697466,2.57438903 9.63488791,3.01589487 8.45164717,3.01589487 C7.2677729,3.01589487 6.6322807,2.57438903 6.12146686,2.21935979 C5.67603314,1.9092477 5.32360136,1.66438903 4.56336745,1.66438903 C3.80383041,1.66438903 3.45139864,1.90918435 3.00596491,2.21935979 C2.49521442,2.57438903 1.85965887,3.01589487 0.6757846,3.01589487 C0.302256335,3.01589487 1.08357767e-13,2.71363854 1.08357767e-13,2.34011027 C1.08357767e-13,1.96658201 0.302256335,1.66432567 0.6757846,1.66432567 C1.43601852,1.66432567 1.78845029,1.41953035 2.23388402,1.10935491 Z M0.675911306,9.9762963 C0.302383041,9.9762963 0.000126705653,9.67403996 0.000126705653,9.3005117 C0.000126705653,8.92698343 0.302383041,8.6247271 0.675911306,8.6247271 C1.85845517,8.6247271 2.49331384,9.06686647 3.00279727,9.42189571 C3.44759747,9.73137427 3.79933236,9.97623294 4.55760234,9.97623294 C4.9311306,9.97623294 5.23338694,10.2784893 5.23338694,10.6520175 C5.23338694,11.0255458 4.9311306,11.3278021 4.55760234,11.3278021 C3.37505848,11.3278021 2.74019981,10.8856628 2.23071637,10.5306335 C1.78591618,10.221155 1.43418129,9.9762963 0.675911306,9.9762963 Z M8.44258772,8.62479045 C9.62652534,8.62479045 10.2620175,9.06623294 10.7721979,9.42132554 C11.2182651,9.73143762 11.5706969,9.9762963 12.3309308,9.9762963 C13.0904678,9.9762963 13.4428996,9.73150097 13.8883333,9.42132554 C14.3990838,9.0662963 15.0346394,8.62479045 16.2185136,8.62479045 C17.3865497,8.62479045 18.0366131,9.04057505 18.6100828,9.40681774 C19.1070224,9.72491228 19.5003168,9.97635965 20.2730945,9.97635965 C20.6466228,9.97635965 20.9488791,10.278616 20.9488791,10.6521442 C20.9488791,11.0256725 20.6466228,11.3279288 20.2730945,11.3279288 C19.1050585,11.3279288 18.4549951,10.9121442 17.8815253,10.5459016 C17.3845858,10.227807 16.9912914,9.97635965 16.2185136,9.97635965 C15.4582797,9.97635965 15.105848,10.221155 14.6604142,10.5313304 C14.1496004,10.8863596 13.5141082,11.3278655 12.3308674,11.3278655 C11.1469932,11.3278655 10.511501,10.8863596 10.0006871,10.5313304 C9.55525341,10.2212183 9.20282164,9.97635965 8.44258772,9.97635965 C8.06905945,9.97635965 7.76680312,9.67410331 7.76680312,9.30057505 C7.76680312,8.92704678 8.06905945,8.62479045 8.44258772,8.62479045 Z M8.44258772,4.57020955 C8.81611598,4.57020955 9.11837232,4.87240253 9.11837232,5.24599415 C9.11837232,5.61952242 8.81611598,5.92177875 8.44258772,5.92177875 C7.68362086,5.92177875 7.33188596,6.16663743 6.88645224,6.47611598 C6.37633528,6.83114522 5.74084308,7.2732846 4.55760234,7.2732846 C3.37505848,7.2732846 2.74019981,6.83114522 2.23071637,6.47611598 C1.78591618,6.16663743 1.43418129,5.92177875 0.675911306,5.92177875 C0.302383041,5.92177875 0.000126705653,5.61952242 0.000126705653,5.24599415 C0.000126705653,4.87246589 0.302383041,4.57020955 0.675911306,4.57020955 C1.85845517,4.57020955 2.49331384,5.01234893 3.00279727,5.36737817 C3.44759747,5.67685673 3.79933236,5.9217154 4.55760234,5.9217154 C5.31720273,5.9217154 5.66893762,5.67692008 6.11437135,5.36674464 C6.6244883,5.0117154 7.25934698,4.57020955 8.44258772,4.57020955 Z M14.6604142,6.47668616 C14.1496004,6.8317154 13.5141082,7.27322125 12.3309308,7.27322125 C11.9574025,7.27322125 11.6551462,6.97096491 11.6551462,6.59743665 C11.6551462,6.22390838 11.9574025,5.92165205 12.3309308,5.92165205 C13.0904678,5.92165205 13.4428996,5.67685673 13.8883333,5.36668129 C14.3990838,5.01165205 15.0346394,4.5701462 16.2185136,4.5701462 C17.4010575,4.5701462 18.0359162,5.01228558 18.5453996,5.36731481 C18.9901998,5.67679337 19.3419347,5.92165205 20.1002047,5.92165205 C20.8598051,5.92165205 21.21154,5.67685673 21.6569737,5.36668129 C22.1670906,5.01165205 22.8019493,4.5701462 23.9851901,4.5701462 C24.3587183,4.5701462 24.6609747,4.87240253 24.6609747,5.2459308 C24.6609747,5.61945906 24.3587183,5.9217154 23.9851901,5.9217154 C23.2262232,5.9217154 22.8744883,6.16657407 22.4290546,6.47605263 C21.9189376,6.83108187 21.2834454,7.27322125 20.1002047,7.27322125 C18.9176608,7.27322125 18.2828021,6.83108187 17.7733187,6.47605263 C17.3285185,6.16657407 16.9767836,5.9217154 16.2185136,5.9217154 C15.4582797,5.9217154 15.105848,6.16651072 14.6604142,6.47668616 Z" id="Combined-Shape"></path>
            </g>
        </g>
    </g>
</svg>