<?xml version="1.0" encoding="UTF-8"?>
<svg width="24px" height="24px" viewBox="0 0 24 24" version="1.1" xmlns="http://www.w3.org/2000/svg" xmlns:xlink="http://www.w3.org/1999/xlink">
    <!-- Generator: sketchtool 53.2 (72643) - https://sketchapp.com -->
    <title>0F80F9AA-E5E6-42CD-A308-550C9D8539A7</title>
    <desc>Created with sketchtool.</desc>
    <g id="Page-1" stroke="none" stroke-width="1" fill="none" fill-rule="evenodd">
        <g id="6.-Plant-profiles-Copy-3" transform="translate(-174.000000, -606.000000)">
            <g id="sunny" transform="translate(174.000000, 606.000000)">
                <path d="M23.8510118,14.137875 L21.2736471,11.87325 L23.7598588,9.51079688 C23.8512,9.42398438 23.8888,9.29559375 23.8586353,9.1738125 C23.8284235,9.05207813 23.7349176,8.95560938 23.6134118,8.92064063 L20.3044235,7.96945313 L21.5273882,4.77932813 C21.5723294,4.66214063 21.5506824,4.53014063 21.4707294,4.43296875 C21.3907294,4.33584375 21.2644706,4.28835938 21.1395294,4.30842188 L17.7384,4.85460938 L17.4617882,1.4533125 C17.4516235,1.32834375 17.3749176,1.21823437 17.2606118,1.16451562 C17.1463059,1.11079687 17.0116235,1.12153125 16.9074824,1.1926875 L14.0714353,3.13059375 L12.3486588,0.17540625 C12.2853647,0.06684375 12.1684235,0 12.0418353,0 C11.9152471,0 11.7983529,0.06684375 11.7350588,0.17540625 L9.75750588,3.56765625 L6.3368,1.60110938 C6.22729412,1.53815625 6.09223529,1.537875 5.98254118,1.60026563 C5.87275294,1.66265625 5.80498824,1.77834375 5.80465882,1.9036875 L5.79637647,5.31595313 L2.36272941,5.03404688 C2.23684706,5.02373438 2.11449412,5.08078125 2.0424,5.18376563 C1.97025882,5.28675 1.95905882,5.4200625 2.01312941,5.53340625 L3.48334118,8.61942188 L0.2592,9.82321875 C0.1408,9.86742188 0.0552,9.970875 0.0345882353,10.0945781 C0.0139764706,10.2182344 0.0616470588,10.3433906 0.159576471,10.4228438 L2.824,12.5862188 L0.4328,15.0429375 C0.344988235,15.1331719 0.312376471,15.2629688 0.347341176,15.3834375 C0.382352941,15.5039063 0.479576471,15.5967188 0.602352941,15.6269063 L3.94611765,16.4496094 L2.84988235,19.6845 C2.8096,19.8033281 2.83642353,19.9343906 2.92018824,20.028375 C3.004,20.1223594 3.13204706,20.1649219 3.25604706,20.1400313 L6.63298824,19.4630156 L7.04338824,22.8510469 C7.0584,22.9755 7.13943529,23.0825156 7.25576471,23.1318281 C7.37218824,23.1811406 7.50625882,23.1652031 7.60752941,23.0900625 L10.3649882,21.0441094 L12.2028706,23.8362656 C12.2679059,23.9384063 12.3811765,23.9999531 12.5024941,23.9999531 C12.5071059,23.9999531 12.5117176,23.9998594 12.5163765,23.9996719 C12.6428235,23.9947969 12.7570824,23.9234531 12.8160471,23.8125469 L14.4210824,20.8873125 L17.3311529,22.7142188 C17.4381176,22.7813438 17.5728941,22.786875 17.6851294,22.72875 C17.7972235,22.670625 17.8695529,22.5576563 17.8747765,22.4324063 L18.0174118,19.023 L21.4373647,19.437375 C21.5627294,19.4525625 21.6872471,19.4002969 21.7633882,19.3001719 C21.8395294,19.2 21.8559059,19.06725 21.8064,18.9518906 L20.4588235,15.8114063 L23.7277647,14.7331406 C23.8478588,14.6935313 23.9374588,14.5935 23.9629176,14.4706875 C23.9883294,14.3479688 23.9456471,14.2210781 23.8510118,14.137875 Z" id="Path" fill="#F5A301"></path>
                <ellipse id="Oval" fill="#FFDB2D" fill-rule="nonzero" cx="11.9223529" cy="11.9386406" rx="7.29736471" ry="7.26323437"></ellipse>
            </g>
        </g>
    </g>
</svg>